<?xml version="1.0" standalone="no"?><!DOCTYPE svg PUBLIC "-//W3C//DTD SVG 1.1//EN" "http://www.w3.org/Graphics/SVG/1.1/DTD/svg11.dtd"><svg t="1564879566451" class="icon" viewBox="0 0 1024 1024" version="1.1" xmlns="http://www.w3.org/2000/svg" p-id="2395" xmlns:xlink="http://www.w3.org/1999/xlink" width="200" height="200"><defs><style type="text/css"></style></defs><path d="M512 742.4c-168.96 0-307.2-138.24-307.2-307.2S343.04 128 512 128s307.2 138.24 307.2 307.2-138.24 307.2-307.2 307.2z m0-563.2c-140.8 0-256 115.2-256 256s115.2 256 256 256 256-115.2 256-256S652.8 179.2 512 179.2z" p-id="2396" fill="#8a8a8a"></path><path d="M512 563.2c-71.68 0-128-56.32-128-128s56.32-128 128-128 128 56.32 128 128-56.32 128-128 128z m0-204.8c-43.52 0-76.8 33.28-76.8 76.8s33.28 76.8 76.8 76.8 76.8-33.28 76.8-76.8-33.28-76.8-76.8-76.8zM647.68 896H376.32c-25.6 0-46.08-10.24-61.44-30.72s-20.48-43.52-12.8-66.56l33.28-115.2c5.12-12.8 17.92-20.48 30.72-17.92 12.8 5.12 20.48 17.92 17.92 30.72l-33.28 115.2c-2.56 7.68 0 15.36 5.12 23.04 5.12 7.68 12.8 10.24 20.48 10.24h273.92c7.68 0 15.36-2.56 20.48-10.24 5.12-7.68 7.68-15.36 5.12-23.04L640 698.88c-5.12-12.8 5.12-28.16 17.92-30.72 12.8-2.56 28.16 5.12 30.72 17.92l33.28 115.2c7.68 23.04 2.56 48.64-12.8 66.56-12.8 17.92-35.84 28.16-61.44 28.16z" p-id="2397" fill="#8a8a8a"></path></svg>